<?xml version="1.0" encoding="UTF-8" standalone="no"?>
<!DOCTYPE svg PUBLIC "-//W3C//DTD SVG 1.1//EN"
 "http://www.w3.org/Graphics/SVG/1.1/DTD/svg11.dtd">
<!-- Generated by graphviz version 2.26.3 (20100126.1600)
 -->
<!-- Title: controllers_diagram Pages: 1 -->
<svg width="719pt" height="743pt"
 viewBox="0.00 0.00 719.00 743.00" xmlns="http://www.w3.org/2000/svg" xmlns:xlink="http://www.w3.org/1999/xlink">
<g id="graph1" class="graph" transform="scale(1 1) rotate(0) translate(4 739)">
<title>controllers_diagram</title>
<polygon fill="white" stroke="white" points="-4,5 -4,-739 716,-739 716,5 -4,5"/>
<!-- _diagram_info -->
<g id="node1" class="node"><title>_diagram_info</title>
<text text-anchor="start" x="185" y="-518.3" font-family="Times Roman,serif" font-size="13.00">Controllers diagram</text>
<text text-anchor="start" x="185" y="-501.3" font-family="Times Roman,serif" font-size="13.00">Date: Nov 23 2011 &#45; 16:34</text>
<text text-anchor="start" x="185" y="-484.3" font-family="Times Roman,serif" font-size="13.00">Migration version: 20111123131216</text>
<text text-anchor="start" x="185" y="-467.3" font-family="Times Roman,serif" font-size="13.00">Generated by RailRoady 1.0.2</text>
<text text-anchor="start" x="185" y="-450.3" font-family="Times Roman,serif" font-size="13.00">http://railroady.prestonlee.com</text>
</g>
<!-- ProjectVersionsController -->
<g id="node2" class="node"><title>ProjectVersionsController</title>
<polyline fill="none" stroke="black" points="35,-1.5 202,-1.5 "/>
<path fill="none" stroke="black" d="M202,-1.5C208,-1.5 214,-7.5 214,-13.5"/>
<polyline fill="none" stroke="black" points="214,-13.5 214,-109.5 "/>
<path fill="none" stroke="black" d="M214,-109.5C214,-115.5 208,-121.5 202,-121.5"/>
<polyline fill="none" stroke="black" points="202,-121.5 35,-121.5 "/>
<path fill="none" stroke="black" d="M35,-121.5C29,-121.5 23,-115.5 23,-109.5"/>
<polyline fill="none" stroke="black" points="23,-109.5 23,-13.5 "/>
<path fill="none" stroke="black" d="M23,-13.5C23,-7.5 29,-1.5 35,-1.5"/>
<text text-anchor="middle" x="118.5" y="-104.9" font-family="Times Roman,serif" font-size="14.00">ProjectVersionsController</text>
<polyline fill="none" stroke="black" points="23,-95.5 214,-95.5 "/>
<text text-anchor="start" x="31" y="-78.9" font-family="Times Roman,serif" font-size="14.00">create</text>
<text text-anchor="start" x="31" y="-60.9" font-family="Times Roman,serif" font-size="14.00">swf</text>
<polyline fill="none" stroke="black" points="23,-51.5 214,-51.5 "/>
<polyline fill="none" stroke="black" points="23,-27.5 214,-27.5 "/>
<text text-anchor="start" x="31" y="-10.9" font-family="Times Roman,serif" font-size="14.00">_layout</text>
</g>
<!-- ProjectsController -->
<g id="node3" class="node"><title>ProjectsController</title>
<polyline fill="none" stroke="black" points="189,-155.5 412,-155.5 "/>
<path fill="none" stroke="black" d="M412,-155.5C418,-155.5 424,-161.5 424,-167.5"/>
<polyline fill="none" stroke="black" points="424,-167.5 424,-389.5 "/>
<path fill="none" stroke="black" d="M424,-389.5C424,-395.5 418,-401.5 412,-401.5"/>
<polyline fill="none" stroke="black" points="412,-401.5 189,-401.5 "/>
<path fill="none" stroke="black" d="M189,-401.5C183,-401.5 177,-395.5 177,-389.5"/>
<polyline fill="none" stroke="black" points="177,-389.5 177,-167.5 "/>
<path fill="none" stroke="black" d="M177,-167.5C177,-161.5 183,-155.5 189,-155.5"/>
<text text-anchor="middle" x="300.5" y="-384.9" font-family="Times Roman,serif" font-size="14.00">ProjectsController</text>
<polyline fill="none" stroke="black" points="177,-375.5 424,-375.5 "/>
<text text-anchor="start" x="185" y="-358.9" font-family="Times Roman,serif" font-size="14.00">_one_time_conditions_valid_222?</text>
<text text-anchor="start" x="185" y="-340.9" font-family="Times Roman,serif" font-size="14.00">create</text>
<text text-anchor="start" x="185" y="-322.9" font-family="Times Roman,serif" font-size="14.00">destroy</text>
<text text-anchor="start" x="185" y="-304.9" font-family="Times Roman,serif" font-size="14.00">edit</text>
<text text-anchor="start" x="185" y="-286.9" font-family="Times Roman,serif" font-size="14.00">index</text>
<text text-anchor="start" x="185" y="-268.9" font-family="Times Roman,serif" font-size="14.00">new</text>
<text text-anchor="start" x="185" y="-250.9" font-family="Times Roman,serif" font-size="14.00">show</text>
<text text-anchor="start" x="185" y="-232.9" font-family="Times Roman,serif" font-size="14.00">update</text>
<polyline fill="none" stroke="black" points="177,-223.5 424,-223.5 "/>
<polyline fill="none" stroke="black" points="177,-199.5 424,-199.5 "/>
<text text-anchor="start" x="185" y="-182.9" font-family="Times Roman,serif" font-size="14.00">_layout</text>
<text text-anchor="start" x="185" y="-164.9" font-family="Times Roman,serif" font-size="14.00">_run_process_action_callbacks</text>
</g>
<!-- SessionsController -->
<g id="node4" class="node"><title>SessionsController</title>
<polyline fill="none" stroke="black" points="13,-595.5 133,-595.5 "/>
<path fill="none" stroke="black" d="M133,-595.5C139,-595.5 145,-601.5 145,-607.5"/>
<polyline fill="none" stroke="black" points="145,-607.5 145,-721.5 "/>
<path fill="none" stroke="black" d="M145,-721.5C145,-727.5 139,-733.5 133,-733.5"/>
<polyline fill="none" stroke="black" points="133,-733.5 13,-733.5 "/>
<path fill="none" stroke="black" d="M13,-733.5C7,-733.5 1,-727.5 1,-721.5"/>
<polyline fill="none" stroke="black" points="1,-721.5 1,-607.5 "/>
<path fill="none" stroke="black" d="M1,-607.5C1,-601.5 7,-595.5 13,-595.5"/>
<text text-anchor="middle" x="73" y="-716.9" font-family="Times Roman,serif" font-size="14.00">SessionsController</text>
<polyline fill="none" stroke="black" points="1,-707.5 145,-707.5 "/>
<text text-anchor="start" x="9" y="-690.9" font-family="Times Roman,serif" font-size="14.00">create</text>
<text text-anchor="start" x="9" y="-672.9" font-family="Times Roman,serif" font-size="14.00">destroy</text>
<text text-anchor="start" x="9" y="-654.9" font-family="Times Roman,serif" font-size="14.00">new</text>
<polyline fill="none" stroke="black" points="1,-645.5 145,-645.5 "/>
<polyline fill="none" stroke="black" points="1,-621.5 145,-621.5 "/>
<text text-anchor="start" x="9" y="-604.9" font-family="Times Roman,serif" font-size="14.00">_layout</text>
</g>
<!-- UsersController -->
<g id="node5" class="node"><title>UsersController</title>
<polyline fill="none" stroke="black" points="475,-133.5 698,-133.5 "/>
<path fill="none" stroke="black" d="M698,-133.5C704,-133.5 710,-139.5 710,-145.5"/>
<polyline fill="none" stroke="black" points="710,-145.5 710,-313.5 "/>
<path fill="none" stroke="black" d="M710,-313.5C710,-319.5 704,-325.5 698,-325.5"/>
<polyline fill="none" stroke="black" points="698,-325.5 475,-325.5 "/>
<path fill="none" stroke="black" d="M475,-325.5C469,-325.5 463,-319.5 463,-313.5"/>
<polyline fill="none" stroke="black" points="463,-313.5 463,-145.5 "/>
<path fill="none" stroke="black" d="M463,-145.5C463,-139.5 469,-133.5 475,-133.5"/>
<text text-anchor="middle" x="586.5" y="-308.9" font-family="Times Roman,serif" font-size="14.00">UsersController</text>
<polyline fill="none" stroke="black" points="463,-299.5 710,-299.5 "/>
<text text-anchor="start" x="471" y="-282.9" font-family="Times Roman,serif" font-size="14.00">_one_time_conditions_valid_302?</text>
<text text-anchor="start" x="471" y="-264.9" font-family="Times Roman,serif" font-size="14.00">create</text>
<text text-anchor="start" x="471" y="-246.9" font-family="Times Roman,serif" font-size="14.00">edit</text>
<text text-anchor="start" x="471" y="-228.9" font-family="Times Roman,serif" font-size="14.00">new</text>
<text text-anchor="start" x="471" y="-210.9" font-family="Times Roman,serif" font-size="14.00">update</text>
<polyline fill="none" stroke="black" points="463,-201.5 710,-201.5 "/>
<polyline fill="none" stroke="black" points="463,-177.5 710,-177.5 "/>
<text text-anchor="start" x="471" y="-160.9" font-family="Times Roman,serif" font-size="14.00">_layout</text>
<text text-anchor="start" x="471" y="-142.9" font-family="Times Roman,serif" font-size="14.00">_run_process_action_callbacks</text>
</g>
<!-- ReviewsController -->
<g id="node6" class="node"><title>ReviewsController</title>
<polyline fill="none" stroke="black" points="475,-375.5 594,-375.5 "/>
<path fill="none" stroke="black" d="M594,-375.5C600,-375.5 606,-381.5 606,-387.5"/>
<polyline fill="none" stroke="black" points="606,-387.5 606,-609.5 "/>
<path fill="none" stroke="black" d="M606,-609.5C606,-615.5 600,-621.5 594,-621.5"/>
<polyline fill="none" stroke="black" points="594,-621.5 475,-621.5 "/>
<path fill="none" stroke="black" d="M475,-621.5C469,-621.5 463,-615.5 463,-609.5"/>
<polyline fill="none" stroke="black" points="463,-609.5 463,-387.5 "/>
<path fill="none" stroke="black" d="M463,-387.5C463,-381.5 469,-375.5 475,-375.5"/>
<text text-anchor="middle" x="534.5" y="-604.9" font-family="Times Roman,serif" font-size="14.00">ReviewsController</text>
<polyline fill="none" stroke="black" points="463,-595.5 606,-595.5 "/>
<text text-anchor="start" x="471" y="-578.9" font-family="Times Roman,serif" font-size="14.00">corrigiu</text>
<text text-anchor="start" x="471" y="-560.9" font-family="Times Roman,serif" font-size="14.00">create</text>
<text text-anchor="start" x="471" y="-542.9" font-family="Times Roman,serif" font-size="14.00">create_aprovado</text>
<text text-anchor="start" x="471" y="-524.9" font-family="Times Roman,serif" font-size="14.00">edit</text>
<text text-anchor="start" x="471" y="-506.9" font-family="Times Roman,serif" font-size="14.00">index</text>
<text text-anchor="start" x="471" y="-488.9" font-family="Times Roman,serif" font-size="14.00">new</text>
<text text-anchor="start" x="471" y="-470.9" font-family="Times Roman,serif" font-size="14.00">revisou_aprovou</text>
<text text-anchor="start" x="471" y="-452.9" font-family="Times Roman,serif" font-size="14.00">revisou_reprovou</text>
<text text-anchor="start" x="471" y="-434.9" font-family="Times Roman,serif" font-size="14.00">show</text>
<polyline fill="none" stroke="black" points="463,-425.5 606,-425.5 "/>
<polyline fill="none" stroke="black" points="463,-401.5 606,-401.5 "/>
<text text-anchor="start" x="471" y="-384.9" font-family="Times Roman,serif" font-size="14.00">_layout</text>
</g>
<!-- ApplicationController -->
<g id="node7" class="node"><title>ApplicationController</title>
<polyline fill="none" stroke="black" points="189,-573.5 403,-573.5 "/>
<path fill="none" stroke="black" d="M403,-573.5C409,-573.5 415,-579.5 415,-585.5"/>
<polyline fill="none" stroke="black" points="415,-585.5 415,-681.5 "/>
<path fill="none" stroke="black" d="M415,-681.5C415,-687.5 409,-693.5 403,-693.5"/>
<polyline fill="none" stroke="black" points="403,-693.5 189,-693.5 "/>
<path fill="none" stroke="black" d="M189,-693.5C183,-693.5 177,-687.5 177,-681.5"/>
<polyline fill="none" stroke="black" points="177,-681.5 177,-585.5 "/>
<path fill="none" stroke="black" d="M177,-585.5C177,-579.5 183,-573.5 189,-573.5"/>
<text text-anchor="middle" x="296" y="-676.9" font-family="Times Roman,serif" font-size="14.00">ApplicationController</text>
<polyline fill="none" stroke="black" points="177,-667.5 415,-667.5 "/>
<text text-anchor="start" x="185" y="-650.9" font-family="Times Roman,serif" font-size="14.00">_one_time_conditions_valid_12?</text>
<polyline fill="none" stroke="black" points="177,-641.5 415,-641.5 "/>
<polyline fill="none" stroke="black" points="177,-617.5 415,-617.5 "/>
<text text-anchor="start" x="185" y="-600.9" font-family="Times Roman,serif" font-size="14.00">_layout</text>
<text text-anchor="start" x="185" y="-582.9" font-family="Times Roman,serif" font-size="14.00">_run_process_action_callbacks</text>
</g>
</g>
</svg>
