<?xml version="1.0" encoding="UTF-8" standalone="no"?>
<!DOCTYPE svg PUBLIC "-//W3C//DTD SVG 1.1//EN"
 "http://www.w3.org/Graphics/SVG/1.1/DTD/svg11.dtd">
<!-- Generated by graphviz version 2.26.3 (20100126.1600)
 -->
<!-- Title: models_diagram Pages: 1 -->
<svg width="924pt" height="1200pt"
 viewBox="0.00 0.00 924.00 1200.00" xmlns="http://www.w3.org/2000/svg" xmlns:xlink="http://www.w3.org/1999/xlink">
<g id="graph1" class="graph" transform="scale(1 1) rotate(0) translate(4 1196)">
<title>models_diagram</title>
<polygon fill="white" stroke="white" points="-4,5 -4,-1196 921,-1196 921,5 -4,5"/>
<!-- _diagram_info -->
<g id="node1" class="node"><title>_diagram_info</title>
<text text-anchor="start" x="8" y="-1150.8" font-family="Times Roman,serif" font-size="13.00">Models diagram</text>
<text text-anchor="start" x="8" y="-1133.8" font-family="Times Roman,serif" font-size="13.00">Date: Nov 23 2011 &#45; 16:34</text>
<text text-anchor="start" x="8" y="-1116.8" font-family="Times Roman,serif" font-size="13.00">Migration version: 20111123131216</text>
<text text-anchor="start" x="8" y="-1099.8" font-family="Times Roman,serif" font-size="13.00">Generated by RailRoady 1.0.2</text>
<text text-anchor="start" x="8" y="-1082.8" font-family="Times Roman,serif" font-size="13.00">http://railroady.prestonlee.com</text>
</g>
<!-- User -->
<g id="node2" class="node"><title>User</title>
<polyline fill="none" stroke="black" points="279.5,-1049 426.5,-1049 "/>
<path fill="none" stroke="black" d="M426.5,-1049C432.5,-1049 438.5,-1055 438.5,-1061"/>
<polyline fill="none" stroke="black" points="438.5,-1061 438.5,-1179 "/>
<path fill="none" stroke="black" d="M438.5,-1179C438.5,-1185 432.5,-1191 426.5,-1191"/>
<polyline fill="none" stroke="black" points="426.5,-1191 279.5,-1191 "/>
<path fill="none" stroke="black" d="M279.5,-1191C273.5,-1191 267.5,-1185 267.5,-1179"/>
<polyline fill="none" stroke="black" points="267.5,-1179 267.5,-1061 "/>
<path fill="none" stroke="black" d="M267.5,-1061C267.5,-1055 273.5,-1049 279.5,-1049"/>
<text text-anchor="middle" x="353" y="-1174.4" font-family="Times Roman,serif" font-size="14.00">User</text>
<polyline fill="none" stroke="black" points="267.5,-1165 438.5,-1165 "/>
<text text-anchor="start" x="275.5" y="-1148.4" font-family="Times Roman,serif" font-size="14.00">username :string</text>
<text text-anchor="start" x="275.5" y="-1130.4" font-family="Times Roman,serif" font-size="14.00">email :string</text>
<text text-anchor="start" x="275.5" y="-1112.4" font-family="Times Roman,serif" font-size="14.00">password_hash :string</text>
<text text-anchor="start" x="275.5" y="-1094.4" font-family="Times Roman,serif" font-size="14.00">password_salt :string</text>
<text text-anchor="start" x="275.5" y="-1076.4" font-family="Times Roman,serif" font-size="14.00">created_at :datetime</text>
<text text-anchor="start" x="275.5" y="-1058.4" font-family="Times Roman,serif" font-size="14.00">updated_at :datetime</text>
</g>
<!-- Review -->
<g id="node4" class="node"><title>Review</title>
<polyline fill="none" stroke="black" points="268,-271 438,-271 "/>
<path fill="none" stroke="black" d="M438,-271C444,-271 450,-277 450,-283"/>
<polyline fill="none" stroke="black" points="450,-283 450,-455 "/>
<path fill="none" stroke="black" d="M450,-455C450,-461 444,-467 438,-467"/>
<polyline fill="none" stroke="black" points="438,-467 268,-467 "/>
<path fill="none" stroke="black" d="M268,-467C262,-467 256,-461 256,-455"/>
<polyline fill="none" stroke="black" points="256,-455 256,-283 "/>
<path fill="none" stroke="black" d="M256,-283C256,-277 262,-271 268,-271"/>
<text text-anchor="middle" x="353" y="-450.4" font-family="Times Roman,serif" font-size="14.00">Review</text>
<polyline fill="none" stroke="black" points="256,-441 450,-441 "/>
<text text-anchor="start" x="264" y="-424.4" font-family="Times Roman,serif" font-size="14.00">tipo :integer</text>
<text text-anchor="start" x="264" y="-406.4" font-family="Times Roman,serif" font-size="14.00">texto :text</text>
<text text-anchor="start" x="264" y="-388.4" font-family="Times Roman,serif" font-size="14.00">criou_at :datetime</text>
<text text-anchor="start" x="264" y="-370.4" font-family="Times Roman,serif" font-size="14.00">corrigiu_at :datetime</text>
<text text-anchor="start" x="264" y="-352.4" font-family="Times Roman,serif" font-size="14.00">revisou_at :datetime</text>
<text text-anchor="start" x="264" y="-334.4" font-family="Times Roman,serif" font-size="14.00">revisou_aprovou :boolean</text>
<text text-anchor="start" x="264" y="-316.4" font-family="Times Roman,serif" font-size="14.00">created_at :datetime</text>
<text text-anchor="start" x="264" y="-298.4" font-family="Times Roman,serif" font-size="14.00">updated_at :datetime</text>
<text text-anchor="start" x="264" y="-280.4" font-family="Times Roman,serif" font-size="14.00">status :integer</text>
</g>
<!-- User&#45;&gt;Review -->
<g id="edge4" class="edge"><title>User&#45;&gt;Review</title>
<path fill="none" stroke="black" d="M260.316,-1048.71C259.877,-1048.47 259.438,-1048.24 259,-1048 237.461,-1036.42 224.697,-1046.88 207,-1030 150.451,-976.063 120.16,-1207.14 199,-776 218.301,-670.451 263.586,-556.746 300.083,-476.421"/>
<ellipse fill="none" stroke="black" cx="263.945" cy="-1050.78" rx="4.00002" ry="4.00002"/>
<polygon fill="black" stroke="black" points="300.102,-476.379 308.354,-469.157 302.182,-471.832 304.262,-467.285 304.262,-467.285 304.262,-467.285 302.182,-471.832 300.169,-465.414 300.102,-476.379 300.102,-476.379"/>
</g>
<!-- User&#45;&gt;Review -->
<g id="edge6" class="edge"><title>User&#45;&gt;Review</title>
<path fill="none" stroke="black" d="M261.814,-1050.84C250.939,-1038.49 241.431,-1024.79 235,-1010 158.041,-833.046 235.975,-607.404 296.591,-476.463"/>
<ellipse fill="none" stroke="black" cx="264.556" cy="-1053.84" rx="4.00002" ry="4.00002"/>
<polygon fill="black" stroke="black" points="296.686,-476.26 304.999,-469.108 298.804,-471.73 300.923,-467.201 300.923,-467.201 300.923,-467.201 298.804,-471.73 296.847,-465.295 296.686,-476.26 296.686,-476.26"/>
<text text-anchor="middle" x="283" y="-889.4" font-family="Times Roman,serif" font-size="14.00">criou_reviews</text>
</g>
<!-- User&#45;&gt;Review -->
<g id="edge8" class="edge"><title>User&#45;&gt;Review</title>
<path fill="none" stroke="black" d="M353,-1040.58C353,-905.369 353,-630.288 353,-477.472"/>
<ellipse fill="none" stroke="black" cx="353" cy="-1044.67" rx="4" ry="4"/>
<polygon fill="black" stroke="black" points="353,-477.135 357.5,-467.135 353,-472.135 353,-467.135 353,-467.135 353,-467.135 353,-472.135 348.5,-467.135 353,-477.135 353,-477.135"/>
<text text-anchor="middle" x="410" y="-889.4" font-family="Times Roman,serif" font-size="14.00">corrigiu_reviews</text>
</g>
<!-- User&#45;&gt;Review -->
<g id="edge10" class="edge"><title>User&#45;&gt;Review</title>
<path fill="none" stroke="black" d="M444.186,-1050.84C455.061,-1038.49 464.569,-1024.79 471,-1010 547.959,-833.046 470.025,-607.404 409.409,-476.463"/>
<ellipse fill="none" stroke="black" cx="441.444" cy="-1053.84" rx="4.00002" ry="4.00002"/>
<polygon fill="black" stroke="black" points="409.314,-476.26 409.153,-465.295 407.196,-471.73 405.077,-467.201 405.077,-467.201 405.077,-467.201 407.196,-471.73 401.001,-469.108 409.314,-476.26 409.314,-476.26"/>
<text text-anchor="middle" x="560" y="-889.4" font-family="Times Roman,serif" font-size="14.00">revisou_reviews</text>
</g>
<!-- Project -->
<g id="node6" class="node"><title>Project</title>
<polyline fill="none" stroke="black" points="645,-777 841,-777 "/>
<path fill="none" stroke="black" d="M841,-777C847,-777 853,-783 853,-789"/>
<polyline fill="none" stroke="black" points="853,-789 853,-997 "/>
<path fill="none" stroke="black" d="M853,-997C853,-1003 847,-1009 841,-1009"/>
<polyline fill="none" stroke="black" points="841,-1009 645,-1009 "/>
<path fill="none" stroke="black" d="M645,-1009C639,-1009 633,-1003 633,-997"/>
<polyline fill="none" stroke="black" points="633,-997 633,-789 "/>
<path fill="none" stroke="black" d="M633,-789C633,-783 639,-777 645,-777"/>
<text text-anchor="middle" x="743" y="-992.4" font-family="Times Roman,serif" font-size="14.00">Project</text>
<polyline fill="none" stroke="black" points="633,-983 853,-983 "/>
<text text-anchor="start" x="641" y="-966.4" font-family="Times Roman,serif" font-size="14.00">numero :integer</text>
<text text-anchor="start" x="641" y="-948.4" font-family="Times Roman,serif" font-size="14.00">created_at :datetime</text>
<text text-anchor="start" x="641" y="-930.4" font-family="Times Roman,serif" font-size="14.00">updated_at :datetime</text>
<text text-anchor="start" x="641" y="-912.4" font-family="Times Roman,serif" font-size="14.00">capa_file_name :string</text>
<text text-anchor="start" x="641" y="-894.4" font-family="Times Roman,serif" font-size="14.00">capa_content_type :string</text>
<text text-anchor="start" x="641" y="-876.4" font-family="Times Roman,serif" font-size="14.00">capa_file_size :integer</text>
<text text-anchor="start" x="641" y="-858.4" font-family="Times Roman,serif" font-size="14.00">capa_updated_at :datetime</text>
<text text-anchor="start" x="641" y="-840.4" font-family="Times Roman,serif" font-size="14.00">status_revisao_texto :integer</text>
<text text-anchor="start" x="641" y="-822.4" font-family="Times Roman,serif" font-size="14.00">status_revisao_final :integer</text>
<text text-anchor="start" x="641" y="-804.4" font-family="Times Roman,serif" font-size="14.00">status_revisao_audio :integer</text>
<text text-anchor="start" x="641" y="-786.4" font-family="Times Roman,serif" font-size="14.00">status_producao :integer</text>
</g>
<!-- User&#45;&gt;Project -->
<g id="edge2" class="edge"><title>User&#45;&gt;Project</title>
<path fill="none" stroke="black" d="M446.367,-1090.83C499.333,-1072.02 565.512,-1044.61 619,-1010 620.724,-1008.88 622.446,-1007.74 624.164,-1006.58"/>
<ellipse fill="none" stroke="black" cx="442.425" cy="-1092.22" rx="4.00001" ry="4.00001"/>
<polygon fill="black" stroke="black" points="624.534,-1006.32 635.305,-1004.26 628.627,-1003.45 632.72,-1000.58 632.72,-1000.58 632.72,-1000.58 628.627,-1003.45 630.135,-996.892 624.534,-1006.32 624.534,-1006.32"/>
</g>
<!-- Subject -->
<g id="node3" class="node"><title>Subject</title>
<polyline fill="none" stroke="black" points="581.5,-1076 722.5,-1076 "/>
<path fill="none" stroke="black" d="M722.5,-1076C728.5,-1076 734.5,-1082 734.5,-1088"/>
<polyline fill="none" stroke="black" points="734.5,-1088 734.5,-1152 "/>
<path fill="none" stroke="black" d="M734.5,-1152C734.5,-1158 728.5,-1164 722.5,-1164"/>
<polyline fill="none" stroke="black" points="722.5,-1164 581.5,-1164 "/>
<path fill="none" stroke="black" d="M581.5,-1164C575.5,-1164 569.5,-1158 569.5,-1152"/>
<polyline fill="none" stroke="black" points="569.5,-1152 569.5,-1088 "/>
<path fill="none" stroke="black" d="M569.5,-1088C569.5,-1082 575.5,-1076 581.5,-1076"/>
<text text-anchor="middle" x="652" y="-1147.4" font-family="Times Roman,serif" font-size="14.00">Subject</text>
<polyline fill="none" stroke="black" points="569.5,-1138 734.5,-1138 "/>
<text text-anchor="start" x="577.5" y="-1121.4" font-family="Times Roman,serif" font-size="14.00">nome :string</text>
<text text-anchor="start" x="577.5" y="-1103.4" font-family="Times Roman,serif" font-size="14.00">created_at :datetime</text>
<text text-anchor="start" x="577.5" y="-1085.4" font-family="Times Roman,serif" font-size="14.00">updated_at :datetime</text>
</g>
<!-- Subject&#45;&gt;Project -->
<g id="edge12" class="edge"><title>Subject&#45;&gt;Project</title>
<path fill="none" stroke="black" d="M672.64,-1068.51C678.668,-1053.48 685.535,-1036.35 692.562,-1018.82"/>
<ellipse fill="none" stroke="black" cx="671.142" cy="-1072.25" rx="4.00001" ry="4.00001"/>
<polygon fill="black" stroke="black" points="692.757,-1018.33 700.655,-1010.72 694.617,-1013.69 696.478,-1009.05 696.478,-1009.05 696.478,-1009.05 694.617,-1013.69 692.301,-1007.38 692.757,-1018.33 692.757,-1018.33"/>
</g>
<!-- Degree -->
<g id="node5" class="node"><title>Degree</title>
<polyline fill="none" stroke="black" points="763.5,-1076 904.5,-1076 "/>
<path fill="none" stroke="black" d="M904.5,-1076C910.5,-1076 916.5,-1082 916.5,-1088"/>
<polyline fill="none" stroke="black" points="916.5,-1088 916.5,-1152 "/>
<path fill="none" stroke="black" d="M916.5,-1152C916.5,-1158 910.5,-1164 904.5,-1164"/>
<polyline fill="none" stroke="black" points="904.5,-1164 763.5,-1164 "/>
<path fill="none" stroke="black" d="M763.5,-1164C757.5,-1164 751.5,-1158 751.5,-1152"/>
<polyline fill="none" stroke="black" points="751.5,-1152 751.5,-1088 "/>
<path fill="none" stroke="black" d="M751.5,-1088C751.5,-1082 757.5,-1076 763.5,-1076"/>
<text text-anchor="middle" x="834" y="-1147.4" font-family="Times Roman,serif" font-size="14.00">Degree</text>
<polyline fill="none" stroke="black" points="751.5,-1138 916.5,-1138 "/>
<text text-anchor="start" x="759.5" y="-1121.4" font-family="Times Roman,serif" font-size="14.00">nome :string</text>
<text text-anchor="start" x="759.5" y="-1103.4" font-family="Times Roman,serif" font-size="14.00">created_at :datetime</text>
<text text-anchor="start" x="759.5" y="-1085.4" font-family="Times Roman,serif" font-size="14.00">updated_at :datetime</text>
</g>
<!-- Degree&#45;&gt;Project -->
<g id="edge14" class="edge"><title>Degree&#45;&gt;Project</title>
<path fill="none" stroke="black" d="M813.36,-1068.51C807.332,-1053.48 800.465,-1036.35 793.438,-1018.82"/>
<ellipse fill="none" stroke="black" cx="814.858" cy="-1072.25" rx="4.00001" ry="4.00001"/>
<polygon fill="black" stroke="black" points="793.243,-1018.33 793.699,-1007.38 791.383,-1013.69 789.522,-1009.05 789.522,-1009.05 789.522,-1009.05 791.383,-1013.69 785.345,-1010.72 793.243,-1018.33 793.243,-1018.33"/>
</g>
<!-- Project&#45;&gt;Review -->
<g id="edge16" class="edge"><title>Project&#45;&gt;Review</title>
<path fill="none" stroke="black" d="M651.543,-770.12C585.002,-680.716 495.804,-560.871 432.279,-475.518"/>
<ellipse fill="none" stroke="black" cx="654.058" cy="-773.499" rx="4.00002" ry="4.00002"/>
<polygon fill="black" stroke="black" points="432.184,-475.39 429.823,-464.681 429.198,-471.379 426.213,-467.368 426.213,-467.368 426.213,-467.368 429.198,-471.379 422.603,-470.055 432.184,-475.39 432.184,-475.39"/>
</g>
<!-- ProjectVersion -->
<g id="node7" class="node"><title>ProjectVersion</title>
<polyline fill="none" stroke="black" points="651.5,-1 834.5,-1 "/>
<path fill="none" stroke="black" d="M834.5,-1C840.5,-1 846.5,-7 846.5,-13"/>
<polyline fill="none" stroke="black" points="846.5,-13 846.5,-725 "/>
<path fill="none" stroke="black" d="M846.5,-725C846.5,-731 840.5,-737 834.5,-737"/>
<polyline fill="none" stroke="black" points="834.5,-737 651.5,-737 "/>
<path fill="none" stroke="black" d="M651.5,-737C645.5,-737 639.5,-731 639.5,-725"/>
<polyline fill="none" stroke="black" points="639.5,-725 639.5,-13 "/>
<path fill="none" stroke="black" d="M639.5,-13C639.5,-7 645.5,-1 651.5,-1"/>
<text text-anchor="middle" x="743" y="-720.4" font-family="Times Roman,serif" font-size="14.00">ProjectVersion</text>
<polyline fill="none" stroke="black" points="639.5,-711 846.5,-711 "/>
<text text-anchor="start" x="647.5" y="-694.4" font-family="Times Roman,serif" font-size="14.00">texto :text</text>
<text text-anchor="start" x="647.5" y="-676.4" font-family="Times Roman,serif" font-size="14.00">created_at :datetime</text>
<text text-anchor="start" x="647.5" y="-658.4" font-family="Times Roman,serif" font-size="14.00">updated_at :datetime</text>
<text text-anchor="start" x="647.5" y="-640.4" font-family="Times Roman,serif" font-size="14.00">fla_file_name :string</text>
<text text-anchor="start" x="647.5" y="-622.4" font-family="Times Roman,serif" font-size="14.00">fla_content_type :string</text>
<text text-anchor="start" x="647.5" y="-604.4" font-family="Times Roman,serif" font-size="14.00">fla_file_size :integer</text>
<text text-anchor="start" x="647.5" y="-586.4" font-family="Times Roman,serif" font-size="14.00">fla_updated_at :datetime</text>
<text text-anchor="start" x="647.5" y="-568.4" font-family="Times Roman,serif" font-size="14.00">swf1_file_name :string</text>
<text text-anchor="start" x="647.5" y="-550.4" font-family="Times Roman,serif" font-size="14.00">swf1_content_type :string</text>
<text text-anchor="start" x="647.5" y="-532.4" font-family="Times Roman,serif" font-size="14.00">swf1_file_size :integer</text>
<text text-anchor="start" x="647.5" y="-514.4" font-family="Times Roman,serif" font-size="14.00">swf1_updated_at :datetime</text>
<text text-anchor="start" x="647.5" y="-496.4" font-family="Times Roman,serif" font-size="14.00">swf2_file_name :string</text>
<text text-anchor="start" x="647.5" y="-478.4" font-family="Times Roman,serif" font-size="14.00">swf2_content_type :string</text>
<text text-anchor="start" x="647.5" y="-460.4" font-family="Times Roman,serif" font-size="14.00">swf2_file_size :integer</text>
<text text-anchor="start" x="647.5" y="-442.4" font-family="Times Roman,serif" font-size="14.00">swf2_updated_at :datetime</text>
<text text-anchor="start" x="647.5" y="-424.4" font-family="Times Roman,serif" font-size="14.00">swf3_file_name :string</text>
<text text-anchor="start" x="647.5" y="-406.4" font-family="Times Roman,serif" font-size="14.00">swf3_content_type :string</text>
<text text-anchor="start" x="647.5" y="-388.4" font-family="Times Roman,serif" font-size="14.00">swf3_file_size :integer</text>
<text text-anchor="start" x="647.5" y="-370.4" font-family="Times Roman,serif" font-size="14.00">swf3_updated_at :datetime</text>
<text text-anchor="start" x="647.5" y="-352.4" font-family="Times Roman,serif" font-size="14.00">swf4_file_name :string</text>
<text text-anchor="start" x="647.5" y="-334.4" font-family="Times Roman,serif" font-size="14.00">swf4_content_type :string</text>
<text text-anchor="start" x="647.5" y="-316.4" font-family="Times Roman,serif" font-size="14.00">swf4_file_size :integer</text>
<text text-anchor="start" x="647.5" y="-298.4" font-family="Times Roman,serif" font-size="14.00">swf4_updated_at :datetime</text>
<text text-anchor="start" x="647.5" y="-280.4" font-family="Times Roman,serif" font-size="14.00">aud1_file_name :string</text>
<text text-anchor="start" x="647.5" y="-262.4" font-family="Times Roman,serif" font-size="14.00">aud1_content_type :string</text>
<text text-anchor="start" x="647.5" y="-244.4" font-family="Times Roman,serif" font-size="14.00">aud1_file_size :integer</text>
<text text-anchor="start" x="647.5" y="-226.4" font-family="Times Roman,serif" font-size="14.00">aud1_updated_at :datetime</text>
<text text-anchor="start" x="647.5" y="-208.4" font-family="Times Roman,serif" font-size="14.00">aud2_file_name :string</text>
<text text-anchor="start" x="647.5" y="-190.4" font-family="Times Roman,serif" font-size="14.00">aud2_content_type :string</text>
<text text-anchor="start" x="647.5" y="-172.4" font-family="Times Roman,serif" font-size="14.00">aud2_file_size :integer</text>
<text text-anchor="start" x="647.5" y="-154.4" font-family="Times Roman,serif" font-size="14.00">aud2_updated_at :datetime</text>
<text text-anchor="start" x="647.5" y="-136.4" font-family="Times Roman,serif" font-size="14.00">aud3_file_name :string</text>
<text text-anchor="start" x="647.5" y="-118.4" font-family="Times Roman,serif" font-size="14.00">aud3_content_type :string</text>
<text text-anchor="start" x="647.5" y="-100.4" font-family="Times Roman,serif" font-size="14.00">aud3_file_size :integer</text>
<text text-anchor="start" x="647.5" y="-82.4" font-family="Times Roman,serif" font-size="14.00">aud3_updated_at :datetime</text>
<text text-anchor="start" x="647.5" y="-64.4" font-family="Times Roman,serif" font-size="14.00">aud4_file_name :string</text>
<text text-anchor="start" x="647.5" y="-46.4" font-family="Times Roman,serif" font-size="14.00">aud4_content_type :string</text>
<text text-anchor="start" x="647.5" y="-28.4" font-family="Times Roman,serif" font-size="14.00">aud4_file_size :integer</text>
<text text-anchor="start" x="647.5" y="-10.4" font-family="Times Roman,serif" font-size="14.00">aud4_updated_at :datetime</text>
</g>
<!-- Project&#45;&gt;ProjectVersion -->
<g id="edge18" class="edge"><title>Project&#45;&gt;ProjectVersion</title>
<path fill="none" stroke="black" d="M743,-768.704C743,-761.929 743,-754.983 743,-747.893"/>
<ellipse fill="none" stroke="black" cx="743" cy="-772.707" rx="4" ry="4"/>
<polygon fill="black" stroke="black" points="743,-747.406 747.5,-737.406 743,-742.406 743,-737.406 743,-737.406 743,-737.406 743,-742.406 738.5,-737.406 743,-747.406 743,-747.406"/>
</g>
</g>
</svg>
