<?xml version="1.0" encoding="UTF-8" standalone="no"?>
<!DOCTYPE svg PUBLIC "-//W3C//DTD SVG 1.1//EN"
 "http://www.w3.org/Graphics/SVG/1.1/DTD/svg11.dtd">
<!-- Generated by graphviz version 2.26.3 (20100126.1600)
 -->
<!-- Title: models_diagram Pages: 1 -->
<svg width="739pt" height="254pt"
 viewBox="0.00 0.00 739.00 254.00" xmlns="http://www.w3.org/2000/svg" xmlns:xlink="http://www.w3.org/1999/xlink">
<g id="graph1" class="graph" transform="scale(1 1) rotate(0) translate(4 250)">
<title>models_diagram</title>
<polygon fill="white" stroke="white" points="-4,5 -4,-250 736,-250 736,5 -4,5"/>
<!-- _diagram_info -->
<g id="node1" class="node"><title>_diagram_info</title>
<text text-anchor="start" x="8" y="-229.8" font-family="Times Roman,serif" font-size="13.00">Models diagram</text>
<text text-anchor="start" x="8" y="-212.8" font-family="Times Roman,serif" font-size="13.00">Date: Nov 23 2011 &#45; 16:34</text>
<text text-anchor="start" x="8" y="-195.8" font-family="Times Roman,serif" font-size="13.00">Migration version: 20111123131216</text>
<text text-anchor="start" x="8" y="-178.8" font-family="Times Roman,serif" font-size="13.00">Generated by RailRoady 1.0.2</text>
<text text-anchor="start" x="8" y="-161.8" font-family="Times Roman,serif" font-size="13.00">http://railroady.prestonlee.com</text>
</g>
<!-- User -->
<g id="node2" class="node"><title>User</title>
<ellipse fill="none" stroke="black" cx="302" cy="-199" rx="33.9411" ry="18.3848"/>
<text text-anchor="middle" x="302" y="-195.4" font-family="Times Roman,serif" font-size="14.00">User</text>
</g>
<!-- Review -->
<g id="node4" class="node"><title>Review</title>
<ellipse fill="none" stroke="black" cx="302" cy="-19" rx="46.8775" ry="18.3848"/>
<text text-anchor="middle" x="302" y="-15.4" font-family="Times Roman,serif" font-size="14.00">Review</text>
</g>
<!-- User&#45;&gt;Review -->
<g id="edge4" class="edge"><title>User&#45;&gt;Review</title>
<path fill="none" stroke="black" d="M285.434,-175.106C278.279,-166.523 269.201,-157.592 259,-152 218.249,-129.663 192.087,-163.281 156,-134 135.793,-117.604 143.079,-101.552 148,-76 149.81,-66.5991 148.798,-62.3073 156,-56 169.742,-43.9661 211.968,-34.0472 247.496,-27.5189"/>
<ellipse fill="none" stroke="black" cx="288.038" cy="-178.402" rx="4.00002" ry="4.00002"/>
<polygon fill="black" stroke="black" points="247.942,-27.4395 258.576,-30.1162 252.865,-26.5627 257.787,-25.686 257.787,-25.686 257.787,-25.686 252.865,-26.5627 256.998,-21.2557 247.942,-27.4395 247.942,-27.4395"/>
</g>
<!-- User&#45;&gt;Review -->
<g id="edge6" class="edge"><title>User&#45;&gt;Review</title>
<path fill="none" stroke="black" d="M283.038,-174.985C276.031,-167.053 267.671,-158.583 259,-152 229.238,-129.404 203.561,-145.839 184,-114 175.159,-99.6099 175.023,-90.3056 184,-76 198.626,-52.6925 225.77,-38.6854 250.339,-30.3932"/>
<ellipse fill="none" stroke="black" cx="285.982" cy="-178.428" rx="4.00002" ry="4.00002"/>
<polygon fill="black" stroke="black" points="250.408,-30.3716 261.296,-31.6793 255.18,-28.8781 259.952,-27.3847 259.952,-27.3847 259.952,-27.3847 255.18,-28.8781 258.608,-23.0901 250.408,-30.3716 250.408,-30.3716"/>
<text text-anchor="middle" x="232" y="-91.4" font-family="Times Roman,serif" font-size="14.00">criou_reviews</text>
</g>
<!-- User&#45;&gt;Review -->
<g id="edge8" class="edge"><title>User&#45;&gt;Review</title>
<path fill="none" stroke="black" d="M302,-172.121C302,-138.823 302,-82.3081 302,-48.0403"/>
<ellipse fill="none" stroke="black" cx="302" cy="-176.415" rx="4" ry="4"/>
<polygon fill="black" stroke="black" points="302,-47.7538 306.5,-37.7537 302,-42.7538 302,-37.7538 302,-37.7538 302,-37.7538 302,-42.7538 297.5,-37.7538 302,-47.7538 302,-47.7538"/>
<text text-anchor="middle" x="359" y="-91.4" font-family="Times Roman,serif" font-size="14.00">corrigiu_reviews</text>
</g>
<!-- User&#45;&gt;Review -->
<g id="edge10" class="edge"><title>User&#45;&gt;Review</title>
<path fill="none" stroke="black" d="M336.194,-184.026C380.227,-162.521 447.953,-120.546 420,-76 405.374,-52.6925 378.23,-38.6854 353.661,-30.3932"/>
<ellipse fill="none" stroke="black" cx="332.423" cy="-185.826" rx="4.00002" ry="4.00002"/>
<polygon fill="black" stroke="black" points="353.592,-30.3716 345.392,-23.0901 348.82,-28.8781 344.048,-27.3847 344.048,-27.3847 344.048,-27.3847 348.82,-28.8781 342.704,-31.6793 353.592,-30.3716 353.592,-30.3716"/>
<text text-anchor="middle" x="483" y="-91.4" font-family="Times Roman,serif" font-size="14.00">revisou_reviews</text>
</g>
<!-- Project -->
<g id="node6" class="node"><title>Project</title>
<ellipse fill="none" stroke="black" cx="628" cy="-95" rx="45.9619" ry="18.3848"/>
<text text-anchor="middle" x="628" y="-91.4" font-family="Times Roman,serif" font-size="14.00">Project</text>
</g>
<!-- User&#45;&gt;Project -->
<g id="edge2" class="edge"><title>User&#45;&gt;Project</title>
<path fill="none" stroke="black" d="M339.244,-187.118C399.298,-167.96 517.347,-130.3 582.364,-109.559"/>
<ellipse fill="none" stroke="black" cx="335.316" cy="-188.372" rx="4.00001" ry="4.00001"/>
<polygon fill="black" stroke="black" points="582.416,-109.542 593.31,-110.79 587.179,-108.023 591.943,-106.503 591.943,-106.503 591.943,-106.503 587.179,-108.023 590.575,-102.216 582.416,-109.542 582.416,-109.542"/>
</g>
<!-- Subject -->
<g id="node3" class="node"><title>Subject</title>
<ellipse fill="none" stroke="black" cx="571" cy="-199" rx="48.0833" ry="18.3848"/>
<text text-anchor="middle" x="571" y="-195.4" font-family="Times Roman,serif" font-size="14.00">Subject</text>
</g>
<!-- Subject&#45;&gt;Project -->
<g id="edge12" class="edge"><title>Subject&#45;&gt;Project</title>
<path fill="none" stroke="black" d="M584.806,-173.81C593.372,-158.181 604.376,-138.104 613.133,-122.126"/>
<ellipse fill="none" stroke="black" cx="582.851" cy="-177.377" rx="4.00002" ry="4.00002"/>
<polygon fill="black" stroke="black" points="613.188,-122.026 621.94,-115.42 615.591,-117.641 617.994,-113.257 617.994,-113.257 617.994,-113.257 615.591,-117.641 614.048,-111.094 613.188,-122.026 613.188,-122.026"/>
</g>
<!-- Degree -->
<g id="node5" class="node"><title>Degree</title>
<ellipse fill="none" stroke="black" cx="684" cy="-199" rx="46.8775" ry="18.3848"/>
<text text-anchor="middle" x="684" y="-195.4" font-family="Times Roman,serif" font-size="14.00">Degree</text>
</g>
<!-- Degree&#45;&gt;Project -->
<g id="edge14" class="edge"><title>Degree&#45;&gt;Project</title>
<path fill="none" stroke="black" d="M670.436,-173.81C662.02,-158.181 651.21,-138.104 642.606,-122.126"/>
<ellipse fill="none" stroke="black" cx="672.349" cy="-177.363" rx="4.00002" ry="4.00002"/>
<polygon fill="black" stroke="black" points="642.572,-122.061 641.793,-111.123 640.201,-117.659 637.831,-113.257 637.831,-113.257 637.831,-113.257 640.201,-117.659 633.868,-115.39 642.572,-122.061 642.572,-122.061"/>
</g>
<!-- Project&#45;&gt;Review -->
<g id="edge16" class="edge"><title>Project&#45;&gt;Review</title>
<path fill="none" stroke="black" d="M584.359,-80.6464C578.874,-79.0003 573.322,-77.4095 568,-76 494.657,-56.5767 408.615,-39.0847 354.694,-28.7488"/>
<ellipse fill="none" stroke="black" cx="588.488" cy="-81.9112" rx="4.00001" ry="4.00001"/>
<polygon fill="black" stroke="black" points="354.504,-28.7127 345.523,-22.4205 349.593,-27.7768 344.681,-26.8409 344.681,-26.8409 344.681,-26.8409 349.593,-27.7768 343.839,-31.2614 354.504,-28.7127 354.504,-28.7127"/>
</g>
<!-- ProjectVersion -->
<g id="node7" class="node"><title>ProjectVersion</title>
<ellipse fill="none" stroke="black" cx="628" cy="-19" rx="82.0244" ry="18.3848"/>
<text text-anchor="middle" x="628" y="-15.4" font-family="Times Roman,serif" font-size="14.00">ProjectVersion</text>
</g>
<!-- Project&#45;&gt;ProjectVersion -->
<g id="edge18" class="edge"><title>Project&#45;&gt;ProjectVersion</title>
<path fill="none" stroke="black" d="M628,-68.0731C628,-61.4485 628,-54.332 628,-47.6302"/>
<ellipse fill="none" stroke="black" cx="628" cy="-72.2135" rx="4" ry="4"/>
<polygon fill="black" stroke="black" points="628,-47.5704 632.5,-37.5704 628,-42.5704 628,-37.5704 628,-37.5704 628,-37.5704 628,-42.5704 623.5,-37.5705 628,-47.5704 628,-47.5704"/>
</g>
</g>
</svg>
